<svg width="115" height="63" viewBox="0 0 115 63" fill="none" xmlns="http://www.w3.org/2000/svg">
<style>
    path {
      fill: #000;
    }
    @media (prefers-color-scheme: dark) {
      path { 
        fill: #fff;
      }
    }
</style>
<path d="M31.8613 22.5091C31.8613 25.2705 31.3628 27.6568 30.3656 29.6682C29.3684 31.6796 28.0005 33.2307 26.2619 34.3216C24.5233 35.4125 22.5375 35.958 20.3045 35.958C18.0716 35.958 16.0858 35.4125 14.3471 34.3216C12.6085 33.2307 11.2406 31.6796 10.2434 29.6682C9.24628 27.6568 8.7477 25.2705 8.7477 22.5091C8.7477 19.7477 9.24628 17.3614 10.2434 15.35C11.2406 13.3386 12.6085 11.7875 14.3471 10.6966C16.0858 9.60569 18.0716 9.06023 20.3045 9.06023C22.5375 9.06023 24.5233 9.60569 26.2619 10.6966C28.0005 11.7875 29.3684 13.3386 30.3656 15.35C31.3628 17.3614 31.8613 19.7477 31.8613 22.5091ZM28.7932 22.5091C28.7932 20.2421 28.4139 18.3287 27.6554 16.769C26.9054 15.2094 25.8869 14.029 24.6 13.2278C23.3216 12.4267 21.8897 12.0261 20.3045 12.0261C18.7193 12.0261 17.2832 12.4267 15.9963 13.2278C14.7179 14.029 13.6994 15.2094 12.9409 16.769C12.1909 18.3287 11.8159 20.2421 11.8159 22.5091C11.8159 24.7761 12.1909 26.6895 12.9409 28.2492C13.6994 29.8088 14.7179 30.9892 15.9963 31.7903C17.2832 32.5915 18.7193 32.9921 20.3045 32.9921C21.8897 32.9921 23.3216 32.5915 24.6 31.7903C25.8869 30.9892 26.9054 29.8088 27.6554 28.2492C28.4139 26.6895 28.7932 24.7761 28.7932 22.5091Z" fill="#174675"/>
<path d="M35.4147 35.6V9.41819H44.2613C46.3068 9.41819 47.9857 9.76762 49.2982 10.4665C50.6107 11.1568 51.5823 12.1071 52.213 13.3173C52.8437 14.5276 53.159 15.904 53.159 17.4466C53.159 18.9892 52.8437 20.3571 52.213 21.5503C51.5823 22.7435 50.615 23.681 49.311 24.3628C48.007 25.0361 46.3409 25.3727 44.3124 25.3727H37.1534V22.5091H44.2102C45.6079 22.5091 46.7329 22.3046 47.5852 21.8955C48.446 21.4864 49.0681 20.9068 49.4516 20.1568C49.8437 19.3983 50.0397 18.4949 50.0397 17.4466C50.0397 16.3983 49.8437 15.4821 49.4516 14.698C49.0596 13.9139 48.4332 13.3088 47.5724 12.8827C46.7116 12.448 45.5738 12.2307 44.159 12.2307H38.5852V35.6H35.4147ZM47.7386 23.8386L54.1818 35.6H50.4999L44.159 23.8386H47.7386Z" fill="#2A83CD"/>
<path d="M66.7559 44.4182H70.2332L73.148 48.2534L73.915 49.2761L78.2616 55.0546H74.7843L71.9207 51.2193L71.2048 50.2477L66.7559 44.4182ZM79.3355 39.5091C79.3355 42.2705 78.8369 44.6568 77.8397 46.6682C76.8426 48.6796 75.4747 50.2307 73.736 51.3216C71.9974 52.4125 70.0116 52.958 67.7786 52.958C65.5457 52.958 63.5599 52.4125 61.8213 51.3216C60.0826 50.2307 58.7147 48.6796 57.7176 46.6682C56.7204 44.6568 56.2218 42.2705 56.2218 39.5091C56.2218 36.7477 56.7204 34.3614 57.7176 32.35C58.7147 30.3386 60.0826 28.7875 61.8213 27.6966C63.5599 26.6057 65.5457 26.0602 67.7786 26.0602C70.0116 26.0602 71.9974 26.6057 73.736 27.6966C75.4747 28.7875 76.8426 30.3386 77.8397 32.35C78.8369 34.3614 79.3355 36.7477 79.3355 39.5091ZM76.2673 39.5091C76.2673 37.2421 75.888 35.3287 75.1295 33.769C74.3795 32.2094 73.361 31.029 72.0741 30.2278C70.7957 29.4267 69.3639 29.0261 67.7786 29.0261C66.1934 29.0261 64.7573 29.4267 63.4704 30.2278C62.192 31.029 61.1735 32.2094 60.415 33.769C59.665 35.3287 59.29 37.2421 59.29 39.5091C59.29 41.7761 59.665 43.6895 60.415 45.2492C61.1735 46.8088 62.192 47.9892 63.4704 48.7903C64.7573 49.5915 66.1934 49.9921 67.7786 49.9921C69.3639 49.9921 70.7957 49.5915 72.0741 48.7903C73.361 47.9892 74.3795 46.8088 75.1295 45.2492C75.888 43.6895 76.2673 41.7761 76.2673 39.5091Z" fill="#2A83CD"/>
<path d="M104.498 34.6H101.328C101.14 33.6881 100.812 32.8869 100.344 32.1966C99.8833 31.5063 99.3208 30.9267 98.6561 30.458C97.9998 29.9807 97.2711 29.6227 96.47 29.3841C95.6689 29.1455 94.8336 29.0261 93.9643 29.0261C92.3791 29.0261 90.943 29.4267 89.6561 30.2278C88.3777 31.029 87.3592 32.2094 86.6007 33.769C85.8507 35.3287 85.4757 37.2421 85.4757 39.5091C85.4757 41.7761 85.8507 43.6895 86.6007 45.2492C87.3592 46.8088 88.3777 47.9892 89.6561 48.7903C90.943 49.5915 92.3791 49.9921 93.9643 49.9921C94.8336 49.9921 95.6689 49.8727 96.47 49.6341C97.2711 49.3955 97.9998 49.0418 98.6561 48.573C99.3208 48.0957 99.8833 47.5119 100.344 46.8216C100.812 46.1227 101.14 45.3216 101.328 44.4182H104.498C104.26 45.7563 103.825 46.9537 103.194 48.0105C102.564 49.0673 101.78 49.9665 100.842 50.708C99.9047 51.4409 98.8521 51.9992 97.6845 52.3827C96.5254 52.7662 95.2853 52.958 93.9643 52.958C91.7314 52.958 89.7456 52.4125 88.0069 51.3216C86.2683 50.2307 84.9004 48.6796 83.9032 46.6682C82.9061 44.6568 82.4075 42.2705 82.4075 39.5091C82.4075 36.7477 82.9061 34.3614 83.9032 32.35C84.9004 30.3386 86.2683 28.7875 88.0069 27.6966C89.7456 26.6057 91.7314 26.0602 93.9643 26.0602C95.2853 26.0602 96.5254 26.252 97.6845 26.6355C98.8521 27.019 99.9047 27.5815 100.842 28.323C101.78 29.056 102.564 29.9509 103.194 31.0077C103.825 32.056 104.26 33.2534 104.498 34.6Z" fill="#174675"/>
</svg>
